# xmcd CD database file
# Generated: Mon Mar 29 19:18:49 2004 by KSCD
# 
# Track frame offsets:
#       150
#       17722
#       38270
#       60095
#       81712
#       115635
#       132345
#       146242
#       169437
#       195225
#       224270
#       244877
#       259795
#       275717
#       292745
#
# Disc length: 4121 seconds
#
# Revision: 4
# Processed by: cddbd v1.5PL3 Copyright (c) Steve Scherf et al.
# Submitted via: Kscd 1.3.3
#
DISCID=d810170f
DTITLE=The Rolling Stones - The Rolling Stones Best II
DYEAR=1900
DGENRE=Blues
TTITLE0=Brown Sugar
TTITLE1=Angie
TTITLE2=Miss You
TTITLE3=2,000 Light Years From Home
TTITLE4=You Can't Always Get What You Want
TTITLE5=Jumpin' Jack Flash
TTITLE6=Honkey Tonk Women
TTITLE7=It's Only Rock And Roll
TTITLE8=Wild Horses
TTITLE9=Sympathy For The Devil
TTITLE10=Gimme Shelter
TTITLE11=Ruby Thesday
TTITLE12=Dandelion
TTITLE13=Tumbling Dice
TTITLE14=Let's Spend The Night Together
EXTD=
EXTT0=
EXTT1=
EXTT2=
EXTT3=
EXTT4=
EXTT5=
EXTT6=
EXTT7=
EXTT8=
EXTT9=
EXTT10=
EXTT11=
EXTT12=
EXTT13=
EXTT14=
PLAYORDER=
